<?xml version="1.0" standalone="no"?>
<!DOCTYPE svg PUBLIC "-//W3C//DTD SVG 20010904//EN"
 "http://www.w3.org/TR/2001/REC-SVG-20010904/DTD/svg10.dtd">
<svg version="1.0" xmlns="http://www.w3.org/2000/svg"
 width="1576.000000pt" height="1574.000000pt" viewBox="0 0 1576.000000 1574.000000"
 preserveAspectRatio="xMidYMid meet">

<g transform="translate(0.000000,1574.000000) scale(0.100000,-0.100000)"
fill="#004377" stroke="none">
<path d="M0 7870 l0 -7870 7880 0 7880 0 0 7870 0 7870 -7880 0 -7880 0 0
-7870z m4565 4096 c341 -56 638 -188 906 -404 71 -57 205 -190 261 -259 15
-18 28 -33 30 -33 2 0 33 34 68 76 195 230 515 443 817 544 245 81 411 100
898 100 474 0 649 -19 884 -96 681 -223 1184 -825 1276 -1531 8 -63 15 -129
15 -147 l0 -32 -77 -13 c-531 -87 -1084 -338 -1520 -692 l-63 -51 0 204 c0
225 -11 300 -57 395 -34 72 -149 191 -218 226 -116 58 -145 62 -465 62 -319 0
-350 -4 -462 -61 -75 -38 -170 -134 -212 -214 -70 -133 -66 55 -66 -2667 l0
-2463 -830 0 -830 0 0 2488 c0 2750 4 2559 -66 2692 -42 80 -137 176 -212 214
-112 57 -143 61 -457 61 -277 0 -293 -1 -355 -24 -171 -61 -285 -175 -337
-338 l-23 -74 0 -2509 0 -2510 -835 0 -835 0 0 2633 c0 1740 4 2669 10 2742
67 702 517 1304 1175 1570 161 65 371 111 585 129 25 2 236 2 470 1 336 -2
446 -6 525 -19z m8572 -542 c311 -64 574 -266 713 -549 102 -206 113 -300 108
-861 -5 -413 -5 -420 -31 -516 -81 -302 -275 -540 -551 -673 -192 -93 -297
-105 -906 -105 -496 0 -489 0 -557 -71 -63 -67 -67 -87 -64 -354 2 -132 6
-278 9 -325 l7 -85 973 -3 972 -2 0 -480 0 -480 -1496 0 -1495 0 4 728 c3 697
4 731 24 820 109 475 393 847 812 1061 117 60 214 95 351 128 100 25 123 26
485 32 429 7 432 7 483 84 26 39 27 46 30 211 2 94 1 186 -3 204 -8 43 -67
108 -110 122 -23 8 -319 13 -937 18 l-903 7 -3 553 -2 552 1005 0 c878 0 1016
-2 1082 -16z m-2666 -1464 c317 -32 630 -111 901 -229 l107 -47 -107 -69
c-153 -100 -370 -317 -475 -475 -164 -248 -264 -528 -292 -816 l-7 -72 -86 24
c-208 57 -459 68 -661 29 -529 -103 -975 -496 -1147 -1012 -212 -633 2 -1323
533 -1723 183 -136 385 -226 616 -272 143 -28 391 -31 537 -5 331 59 625 184
876 370 80 60 275 247 319 306 17 22 33 41 36 41 5 0 918 -1052 947 -1091 11
-16 2 -31 -76 -121 -106 -123 -285 -297 -402 -391 -201 -162 -508 -345 -745
-443 -269 -111 -562 -184 -859 -214 -176 -18 -594 -8 -761 19 -648 104 -1222
397 -1685 861 -256 256 -434 506 -595 835 -219 447 -318 879 -318 1390 0 523
107 977 338 1430 410 809 1131 1385 2000 1601 123 30 341 67 460 77 95 8 451
6 546 -3z"/>
</g>
</svg>
